<?xml version="1.0" encoding="UTF-8" standalone="no"?>
<svg
   xml:space="preserve"
   viewBox="0 0 240 234"
   version="1.1"
   id="svg6"
   sodipodi:docname="Adobe_Illustrator_CC_icon.svg"
   inkscape:version="1.2.2 (732a01da63, 2022-12-09)"
   xmlns:inkscape="http://www.inkscape.org/namespaces/inkscape"
   xmlns:sodipodi="http://sodipodi.sourceforge.net/DTD/sodipodi-0.dtd"
   xmlns="http://www.w3.org/2000/svg"
   xmlns:svg="http://www.w3.org/2000/svg"><defs
   id="defs10" /><sodipodi:namedview
   id="namedview8"
   pagecolor="#ffffff"
   bordercolor="#000000"
   borderopacity="0.25"
   inkscape:showpageshadow="2"
   inkscape:pageopacity="0.0"
   inkscape:pagecheckerboard="0"
   inkscape:deskcolor="#d1d1d1"
   showgrid="false"
   inkscape:zoom="3.1034131"
   inkscape:cx="139.68492"
   inkscape:cy="142.26272"
   inkscape:window-width="2560"
   inkscape:window-height="1351"
   inkscape:window-x="-9"
   inkscape:window-y="-9"
   inkscape:window-maximized="1"
   inkscape:current-layer="svg6" />
  
  
<g
   id="g3464"
   transform="matrix(0.97082147,0,0,0.9604326,3.9569398,5.1793687)"><g
     id="g855"><path
       fill="#330000"
       d="m 42.5,0 h 155 C 221,0 240,19 240,42.5 v 149 C 240,215 221,234 197.5,234 H 42.5 C 19,234 0,215 0,191.5 V 42.5 C 0,19 19,0 42.5,0 Z"
       id="path2" /><path
       fill="#ff9a00"
       d="M 116,140 H 78.8 l -7.6,23.5 c -0.2,0.9 -1,1.5 -1.9,1.4 H 50.5 c -1.1,0 -1.4,-0.6 -1.1,-1.8 L 81.6,70.4 c 0.3,-1 0.6,-2.1 1,-3.3 0.4,-2.1 0.6,-4.3 0.6,-6.5 -0.1,-0.5 0.3,-1 0.8,-1.1 h 25.9 c 0.8,0 1.2,0.3 1.3,0.8 l 36.5,103 c 0.3,1.1 0,1.6 -1,1.6 h -20.9 c -0.7,0.1 -1.4,-0.4 -1.6,-1.1 z M 84.6,119.7 H 110 c -0.6,-2.1 -1.4,-4.6 -2.3,-7.2 -0.9,-2.7 -1.8,-5.6 -2.7,-8.6 -1,-3.1 -1.9,-6.1 -2.9,-9.2 -1,-3.1 -1.9,-6 -2.7,-8.9 C 98.6,83 97.9,80.4 97.2,78 H 97 c -0.9,4.3 -2,8.6 -3.4,12.9 -1.5,4.8 -3,9.8 -4.6,14.8 -1.4,5.1 -2.9,9.8 -4.4,14 z M 170,77 c -3.3,0.1 -6.5,-1.2 -8.9,-3.5 -2.3,-2.5 -3.5,-5.8 -3.4,-9.2 -0.1,-3.4 1.2,-6.6 3.6,-8.9 2.4,-2.3 5.6,-3.5 8.9,-3.5 3.9,0 6.9,1.2 9.1,3.5 2.2,2.4 3.4,5.6 3.3,8.9 0.1,3.4 -1.1,6.7 -3.5,9.2 -2.3,2.4 -5.7,3.7 -9.1,3.5 z m -11.2,86.8 v -77 c 0,-1 0.4,-1.4 1.3,-1.4 h 19.8 c 0.9,0 1.3,0.5 1.3,1.4 v 77 c 0,1.1 -0.4,1.6 -1.3,1.6 h -19.6 c -1,0 -1.5,-0.6 -1.5,-1.6 z"
       id="path4" /></g><path
     fill="#330000"
     d="m 42.5,0 h 155 C 221,0 240,19 240,42.5 v 149 C 240,215 221,234 197.5,234 H 42.5 C 19,234 0,215 0,191.5 V 42.5 C 0,19 19,0 42.5,0 Z"
     id="path857"
     style="fill:#353535;fill-opacity:1;stroke:#e6b311;stroke-width:2.5;stroke-dasharray:none;stroke-opacity:1" /><path
     fill="#ff9a00"
     d="M 116,140 H 78.8 l -7.6,23.5 c -0.2,0.9 -1,1.5 -1.9,1.4 H 50.5 c -1.1,0 -1.4,-0.6 -1.1,-1.8 L 81.6,70.4 c 0.3,-1 0.6,-2.1 1,-3.3 0.4,-2.1 0.6,-4.3 0.6,-6.5 -0.1,-0.5 0.3,-1 0.8,-1.1 h 25.9 c 0.8,0 1.2,0.3 1.3,0.8 l 36.5,103 c 0.3,1.1 0,1.6 -1,1.6 h -20.9 c -0.7,0.1 -1.4,-0.4 -1.6,-1.1 z M 84.6,119.7 H 110 c -0.6,-2.1 -1.4,-4.6 -2.3,-7.2 -0.9,-2.7 -1.8,-5.6 -2.7,-8.6 -1,-3.1 -1.9,-6.1 -2.9,-9.2 -1,-3.1 -1.9,-6 -2.7,-8.9 C 98.6,83 97.9,80.4 97.2,78 H 97 c -0.9,4.3 -2,8.6 -3.4,12.9 -1.5,4.8 -3,9.8 -4.6,14.8 -1.4,5.1 -2.9,9.8 -4.4,14 z M 170,77 c -3.3,0.1 -6.5,-1.2 -8.9,-3.5 -2.3,-2.5 -3.5,-5.8 -3.4,-9.2 -0.1,-3.4 1.2,-6.6 3.6,-8.9 2.4,-2.3 5.6,-3.5 8.9,-3.5 3.9,0 6.9,1.2 9.1,3.5 2.2,2.4 3.4,5.6 3.3,8.9 0.1,3.4 -1.1,6.7 -3.5,9.2 -2.3,2.4 -5.7,3.7 -9.1,3.5 z m -11.2,86.8 v -77 c 0,-1 0.4,-1.4 1.3,-1.4 h 19.8 c 0.9,0 1.3,0.5 1.3,1.4 v 77 c 0,1.1 -0.4,1.6 -1.3,1.6 h -19.6 c -1,0 -1.5,-0.6 -1.5,-1.6 z"
     id="path859"
     style="fill:#e6b311;fill-opacity:1" /></g></svg>
