<?xml version="1.0" encoding="UTF-8" standalone="no"?>
<svg
   version="1.0"
   width="128"
   height="128"
   id="svg176"
   sodipodi:docname="Inkscape_Logo.svg"
   inkscape:version="1.2.2 (732a01da63, 2022-12-09)"
   xml:space="preserve"
   xmlns:inkscape="http://www.inkscape.org/namespaces/inkscape"
   xmlns:sodipodi="http://sodipodi.sourceforge.net/DTD/sodipodi-0.dtd"
   xmlns:xlink="http://www.w3.org/1999/xlink"
   xmlns="http://www.w3.org/2000/svg"
   xmlns:svg="http://www.w3.org/2000/svg"><sodipodi:namedview
     id="namedview178"
     pagecolor="#ffffff"
     bordercolor="#000000"
     borderopacity="0.25"
     inkscape:showpageshadow="2"
     inkscape:pageopacity="0.0"
     inkscape:pagecheckerboard="0"
     inkscape:deskcolor="#d1d1d1"
     showgrid="false"
     inkscape:zoom="4.0117188"
     inkscape:cx="10.095423"
     inkscape:cy="44.494644"
     inkscape:window-width="2560"
     inkscape:window-height="1351"
     inkscape:window-x="-9"
     inkscape:window-y="-9"
     inkscape:window-maximized="1"
     inkscape:current-layer="svg176" /><defs
     id="defs110"><linearGradient
       id="a"
       gradientUnits="userSpaceOnUse"><stop
         style="stop-color:#fff;stop-opacity:1"
         offset="0"
         id="stop2" /><stop
         style="stop-color:#fff;stop-opacity:0"
         offset="1"
         id="stop4" /></linearGradient><linearGradient
       id="b"
       gradientUnits="userSpaceOnUse"><stop
         style="stop-color:#c0cdf9;stop-opacity:1"
         offset="0"
         id="stop7" /><stop
         style="stop-color:#07092d;stop-opacity:.28804347"
         offset="1"
         id="stop9" /></linearGradient><linearGradient
       x1="82.118591"
       y1="20"
       x2="60"
       y2="40"
       id="t"
       xlink:href="#c"
       gradientUnits="userSpaceOnUse" /><linearGradient
       id="c"
       gradientUnits="userSpaceOnUse"><stop
         style="stop-color:#ffae00;stop-opacity:1;"
         offset="0"
         id="stop13" /><stop
         style="stop-color:#07092d;stop-opacity:.28804347"
         offset="1"
         id="stop15" /></linearGradient><linearGradient
       x1="33"
       y1="35"
       x2="58"
       y2="60"
       id="u"
       xlink:href="#e"
       gradientUnits="userSpaceOnUse"
       gradientTransform="matrix(1.00918 0 0 1.00918 -.3890738 -.3831933)" /><linearGradient
       id="e"
       gradientUnits="userSpaceOnUse"><stop
         style="stop-color:#fff;stop-opacity:1"
         offset="0"
         id="stop19" /><stop
         style="stop-color:#fff;stop-opacity:0"
         offset="1"
         id="stop21" /></linearGradient><linearGradient
       x1="60"
       y1="20"
       x2="90"
       y2="50"
       id="v"
       xlink:href="#e"
       gradientUnits="userSpaceOnUse" /><linearGradient
       id="f"><stop
         style="stop-color:#fff;stop-opacity:1"
         offset="0"
         id="stop25" /><stop
         style="stop-color:#fff;stop-opacity:0"
         offset="1"
         id="stop27" /></linearGradient><linearGradient
       id="g"><stop
         style="stop-color:#fff;stop-opacity:1"
         offset="0"
         id="stop30" /><stop
         style="stop-color:#fff;stop-opacity:0"
         offset="1"
         id="stop32" /></linearGradient><linearGradient
       x1="231.625"
       y1="195.1875"
       x2="231.75"
       y2="201.5"
       id="A"
       xlink:href="#h"
       gradientUnits="userSpaceOnUse" /><linearGradient
       id="h"><stop
         style="stop-color:#fff;stop-opacity:1"
         offset="0"
         id="stop36" /><stop
         style="stop-color:#fff;stop-opacity:0"
         offset="1"
         id="stop38" /></linearGradient><linearGradient
       x1="231.37646"
       y1="195.62132"
       x2="231.37646"
       y2="200.07138"
       id="B"
       xlink:href="#h"
       gradientUnits="userSpaceOnUse" /><linearGradient
       id="i"><stop
         style="stop-color:#fff;stop-opacity:1"
         offset="0"
         id="stop42" /><stop
         style="stop-color:#fff;stop-opacity:0"
         offset="1"
         id="stop44" /></linearGradient><linearGradient
       x1="231.625"
       y1="195.1875"
       x2="231.75"
       y2="201.5"
       id="D"
       xlink:href="#h"
       gradientUnits="userSpaceOnUse" /><linearGradient
       x1="231.37646"
       y1="195.62132"
       x2="231.37646"
       y2="200.07138"
       id="E"
       xlink:href="#h"
       gradientUnits="userSpaceOnUse" /><linearGradient
       id="j"><stop
         style="stop-color:#fff;stop-opacity:.33004925"
         offset="0"
         id="stop49" /><stop
         style="stop-color:#fff;stop-opacity:0"
         offset="1"
         id="stop51" /></linearGradient><linearGradient
       x1="231.625"
       y1="195.1875"
       x2="231.75"
       y2="201.5"
       id="H"
       xlink:href="#h"
       gradientUnits="userSpaceOnUse" /><linearGradient
       x1="231.37646"
       y1="195.62132"
       x2="231.37646"
       y2="200.07138"
       id="I"
       xlink:href="#h"
       gradientUnits="userSpaceOnUse" /><linearGradient
       id="k"><stop
         style="stop-color:#fff;stop-opacity:1"
         offset="0"
         id="stop56" /><stop
         style="stop-color:#fff;stop-opacity:0"
         offset="1"
         id="stop58" /></linearGradient><linearGradient
       id="l"><stop
         style="stop-color:#fff;stop-opacity:1"
         offset="0"
         id="stop61" /><stop
         style="stop-color:#fff;stop-opacity:0"
         offset="1"
         id="stop63" /></linearGradient><linearGradient
       x1="95.5"
       y1="208.16444"
       x2="153.5"
       y2="223.5"
       id="L"
       xlink:href="#m"
       gradientUnits="userSpaceOnUse" /><linearGradient
       id="m"><stop
         style="stop-color:#fff;stop-opacity:1"
         offset="0"
         id="stop67" /><stop
         style="stop-color:#fff;stop-opacity:0"
         offset="1"
         id="stop69" /></linearGradient><linearGradient
       x1="57.225197"
       y1="76.246338"
       x2="53.63158"
       y2="84.480316"
       id="M"
       xlink:href="#n"
       gradientUnits="userSpaceOnUse"
       gradientTransform="matrix(.88526 0 0 .88526 5.1772151 9.2293372)" /><linearGradient
       id="n"><stop
         style="stop-color:#ffae00;stop-opacity:1;"
         offset="0"
         id="stop73" /><stop
         style="stop-color:#eeeeec;stop-opacity:0"
         offset="1"
         id="stop75" /></linearGradient><linearGradient
       id="o"><stop
         style="stop-color:#fff;stop-opacity:1"
         offset="0"
         id="stop78" /><stop
         style="stop-color:#fff;stop-opacity:0"
         offset="1"
         id="stop80" /></linearGradient><linearGradient
       x1="73.712105"
       y1="180.47572"
       x2="82.754066"
       y2="187.65974"
       id="O"
       xlink:href="#e"
       gradientUnits="userSpaceOnUse"
       gradientTransform="matrix(.4928 0 0 .4928 -6.0003885 -9.7225182)" /><linearGradient
       id="p"><stop
         style="stop-color:#729fcf;stop-opacity:1"
         offset="0"
         id="stop84" /><stop
         style="stop-color:#729fcf;stop-opacity:0"
         offset="1"
         id="stop86" /></linearGradient><linearGradient
       x1="180.81293"
       y1="217.5"
       x2="153.70045"
       y2="144.5"
       id="P"
       xlink:href="#p"
       gradientUnits="userSpaceOnUse"
       gradientTransform="translate(-130.16572 -83.352786)" /><radialGradient
       cx="116.31038"
       cy="250.89737"
       r="30.599579"
       fx="116.31038"
       fy="250.89737"
       id="w"
       xlink:href="#f"
       gradientUnits="userSpaceOnUse"
       gradientTransform="matrix(1.57005 0 0 1.05093 -75.500107 -22.095908)" /><radialGradient
       cx="132.44434"
       cy="251.99396"
       r="30.599579"
       fx="132.44434"
       fy="251.99396"
       id="x"
       xlink:href="#f"
       gradientUnits="userSpaceOnUse"
       gradientTransform="matrix(2.00325 0 0 1.3409 -132.8752 -95.166065)" /><radialGradient
       cx="210.25"
       cy="168.5"
       r="34.25"
       fx="210.25"
       fy="168.5"
       id="y"
       xlink:href="#g"
       gradientUnits="userSpaceOnUse"
       gradientTransform="matrix(1 0 0 .42336 0 97.164234)" /><radialGradient
       cx="217.5"
       cy="182.08189"
       r="34.25"
       fx="217.5"
       fy="182.08189"
       id="z"
       xlink:href="#g"
       gradientUnits="userSpaceOnUse"
       gradientTransform="matrix(1 0 0 .42336 0 97.164234)" /><radialGradient
       cx="228.21875"
       cy="204.83229"
       r="14.09375"
       fx="228.21875"
       fy="204.83229"
       id="C"
       xlink:href="#i"
       gradientUnits="userSpaceOnUse"
       gradientTransform="matrix(1 0 0 .14775 0 174.56924)" /><radialGradient
       cx="228.21875"
       cy="204.83229"
       r="14.09375"
       fx="228.21875"
       fy="204.83229"
       id="F"
       xlink:href="#i"
       gradientUnits="userSpaceOnUse"
       gradientTransform="matrix(1 0 0 .14775 0 174.56924)" /><radialGradient
       cx="89.875"
       cy="187.86935"
       r="22.75"
       fx="89.875"
       fy="187.86935"
       id="G"
       xlink:href="#j"
       gradientUnits="userSpaceOnUse"
       gradientTransform="matrix(1 0 0 .40708 0 115.76014)" /><radialGradient
       cx="90.28125"
       cy="230.83626"
       r="10.46875"
       fx="90.28125"
       fy="230.83626"
       id="J"
       xlink:href="#k"
       gradientUnits="userSpaceOnUse"
       gradientTransform="matrix(1.18507 -.32836 .12286 .4434 -45.068314 152.92161)" /><radialGradient
       cx="68.39994"
       cy="21.225746"
       r="54.783398"
       fx="68.39994"
       fy="21.225746"
       id="K"
       xlink:href="#l"
       gradientUnits="userSpaceOnUse"
       gradientTransform="matrix(1.72215 0 0 1.69498 -49.39526 -14.078057)" /><radialGradient
       cx="181.22731"
       cy="214.55121"
       r="22.466398"
       fx="181.22731"
       fy="214.55121"
       id="N"
       xlink:href="#o"
       gradientUnits="userSpaceOnUse"
       gradientTransform="matrix(1.35152 0 0 1.71757 -63.705646 -153.95568)" /><filter
       id="q"
       color-interpolation-filters="sRGB"
       x="-0.017255854"
       y="-0.017528899"
       width="1.0345117"
       height="1.0350578"><feGaussianBlur
         stdDeviation=".80546496"
         id="feGaussianBlur100" /></filter><filter
       id="r"
       color-interpolation-filters="sRGB"
       x="-0.074775365"
       y="-0.075958553"
       width="1.1495507"
       height="1.1519171"><feGaussianBlur
         stdDeviation="3.4903482"
         id="feGaussianBlur103" /></filter><clipPath
       id="s"><use
         transform="translate(.00000101)"
         style="opacity:.25;fill:#fff;fill-opacity:1"
         width="400"
         height="300"
         xlink:href="#d"
         id="use106" /></clipPath><path
       d="M54.1 12.5 12.9 54.7C-2.7 70.3 23 69 32.3 74.9c4.3 2.8-13.8 6.4-10.1 10.1 3.6 3.7 21.7 7.1 25.3 10.7 3.6 3.7-7.3 7.6-3.7 11.3 3.5 3.7 11.9.2 13.4 8.6 1.1 6.2 15.4 3.1 21.8-2.2 4-3.4-6.9-3.4-3.3-7.1 9-9.1 17-4.1 20.3-12.5 1.8-4.5-13.6-7.7-9.5-10.6 9.8-6.9 45.8-10.4 29.2-27L73 12.5c-5.3-5-14-5-18.9 0zm-9.9 64.7c.9 0 30.8 4 19.3 7.1-4.4 1.2-24.6-7.1-19.3-7.1zm57.2 16.6c0 2.1 16.3 3.3 15.4-.5-1.3-6.4-13.6-5.9-15.4.5zm-69.5 11.1c3.7 3.2 9.3-.7 11.1-5.2-3.6-4.7-16.9.3-11.1 5.2zm67.5-6.7c-4.6 4.2.8 8.6 5.3 5.7 1.2-.8-.1-4.7-5.3-5.7z"
       id="d" /><radialGradient
       inkscape:collect="always"
       xlink:href="#f"
       id="radialGradient1049"
       gradientUnits="userSpaceOnUse"
       gradientTransform="matrix(0.82653762,0,0,0.55325193,-51.00815,-26.857395)"
       cx="116.31038"
       cy="250.89737"
       fx="116.31038"
       fy="250.89737"
       r="30.599579" /><radialGradient
       inkscape:collect="always"
       xlink:href="#f"
       id="radialGradient1051"
       gradientUnits="userSpaceOnUse"
       gradientTransform="matrix(1.0545916,0,0,0.70590383,-81.212713,-65.324472)"
       cx="132.44434"
       cy="251.99396"
       fx="132.44434"
       fy="251.99396"
       r="30.599579" /><radialGradient
       inkscape:collect="always"
       xlink:href="#g"
       id="radialGradient1053"
       gradientUnits="userSpaceOnUse"
       gradientTransform="matrix(0.52644032,0,0,0.22287377,-11.26185,35.925952)"
       cx="210.25"
       cy="168.5"
       fx="210.25"
       fy="168.5"
       r="34.25" /><radialGradient
       inkscape:collect="always"
       xlink:href="#g"
       id="radialGradient1055"
       gradientUnits="userSpaceOnUse"
       gradientTransform="matrix(0.52644032,0,0,0.22287377,-11.26185,35.004684)"
       cx="217.5"
       cy="182.08189"
       fx="217.5"
       fy="182.08189"
       r="34.25" /><linearGradient
       inkscape:collect="always"
       xlink:href="#h"
       id="linearGradient1057"
       gradientUnits="userSpaceOnUse"
       x1="231.625"
       y1="195.1875"
       x2="231.75"
       y2="201.5"
       gradientTransform="matrix(0.52644032,0,0,0.52644032,-11.919898,-16.146486)" /><linearGradient
       inkscape:collect="always"
       xlink:href="#h"
       id="linearGradient1059"
       gradientUnits="userSpaceOnUse"
       x1="231.37646"
       y1="195.62132"
       x2="231.37646"
       y2="200.07138"
       gradientTransform="matrix(0.70882831,0,0,1.1338669,-53.857789,-135.58227)" /><radialGradient
       inkscape:collect="always"
       xlink:href="#i"
       id="radialGradient1061"
       gradientUnits="userSpaceOnUse"
       gradientTransform="matrix(0.52644032,0,0,0.07778156,-11.26185,76.302821)"
       cx="228.21875"
       cy="204.83229"
       fx="228.21875"
       fy="204.83229"
       r="14.09375" /><linearGradient
       inkscape:collect="always"
       xlink:href="#h"
       id="linearGradient1063"
       gradientUnits="userSpaceOnUse"
       x1="231.625"
       y1="195.1875"
       x2="231.75"
       y2="201.5"
       gradientTransform="matrix(0.20301225,-0.10293243,0.23806851,0.46953726,6.1092925,28.657943)" /><linearGradient
       inkscape:collect="always"
       xlink:href="#h"
       id="linearGradient1065"
       gradientUnits="userSpaceOnUse"
       x1="231.37646"
       y1="195.62132"
       x2="231.37646"
       y2="200.07138"
       gradientTransform="matrix(0.27335338,-0.13859499,0.51275377,1.0113041,-64.568083,-70.325749)" /><radialGradient
       inkscape:collect="always"
       xlink:href="#i"
       id="radialGradient1067"
       gradientUnits="userSpaceOnUse"
       gradientTransform="matrix(0.20301225,-0.10293243,0.03517462,0.06937413,48.170776,110.98571)"
       cx="228.21875"
       cy="204.83229"
       fx="228.21875"
       fy="204.83229"
       r="14.09375" /><radialGradient
       inkscape:collect="always"
       xlink:href="#j"
       id="radialGradient1069"
       gradientUnits="userSpaceOnUse"
       gradientTransform="matrix(0.52644032,0,0,0.21430333,-11.26185,45.715587)"
       cx="89.875"
       cy="187.86935"
       fx="89.875"
       fy="187.86935"
       r="22.75" /><linearGradient
       inkscape:collect="always"
       xlink:href="#h"
       id="linearGradient1071"
       gradientUnits="userSpaceOnUse"
       x1="231.625"
       y1="195.1875"
       x2="231.75"
       y2="201.5"
       gradientTransform="matrix(0.46274865,-0.10160055,0.12309947,0.36636628,-94.550176,47.981008)" /><linearGradient
       inkscape:collect="always"
       xlink:href="#h"
       id="linearGradient1073"
       gradientUnits="userSpaceOnUse"
       x1="231.37646"
       y1="195.62132"
       x2="231.37646"
       y2="200.07138"
       gradientTransform="matrix(0.62307117,-0.13679596,0.2651335,0.78908897,-159.34236,-27.044035)" /><radialGradient
       inkscape:collect="always"
       xlink:href="#k"
       id="radialGradient1075"
       gradientUnits="userSpaceOnUse"
       gradientTransform="matrix(0.62386863,-0.17286194,0.06467846,0.23342364,-34.888921,64.719542)"
       cx="90.28125"
       cy="230.83626"
       fx="90.28125"
       fy="230.83626"
       r="10.46875" /><radialGradient
       inkscape:collect="always"
       xlink:href="#l"
       id="radialGradient1077"
       gradientUnits="userSpaceOnUse"
       gradientTransform="matrix(1.7117138,0,0,1.6847084,-48.706554,-15.43782)"
       cx="68.39994"
       cy="21.225746"
       fx="68.39994"
       fy="21.225746"
       r="54.783398" /><linearGradient
       inkscape:collect="always"
       xlink:href="#n"
       id="linearGradient1079"
       gradientUnits="userSpaceOnUse"
       gradientTransform="matrix(0.87989532,0,0,0.87989532,5.5352123,7.7283316)"
       x1="57.225197"
       y1="76.246338"
       x2="53.63158"
       y2="84.480316" /><radialGradient
       inkscape:collect="always"
       xlink:href="#o"
       id="radialGradient1081"
       gradientUnits="userSpaceOnUse"
       gradientTransform="matrix(0.65594793,0,0,0.83360697,-36.304775,-83.823628)"
       cx="181.22731"
       cy="214.55121"
       fx="181.22731"
       fy="214.55121"
       r="22.466398" /><linearGradient
       inkscape:collect="always"
       xlink:href="#e"
       id="linearGradient1083"
       gradientUnits="userSpaceOnUse"
       gradientTransform="matrix(0.48981363,0,0,0.48981363,-5.574655,-11.108676)"
       x1="73.712105"
       y1="180.47572"
       x2="82.754066"
       y2="187.65974" /></defs><g
     id="g2652"><g
       transform="translate(.38937111 -1.4450758) scale(.99394)"
       style="display:inline;enable-background:new"
       id="g174"><g
         style="opacity:.78325124"
         id="g116"><path
           d="m54.1 12.988307-41.2 42.2c-15.6 15.6 10.1 14.3 19.4 20.2 4.3 2.8-13.8 6.4-10.1 10.1 3.6 3.7 21.7 7.1 25.3 10.7 3.6 3.699996-7.3 7.600003-3.7 11.300003 3.5 3.7 11.9.2 13.4 8.6 1.1 6.2 15.4 3.1 21.8-2.2 4-3.4-6.9-3.4-3.3-7.1 9-9.100003 17-4.1 20.3-12.500003 1.8-4.5-13.6-7.7-9.5-10.6 9.8-6.9 45.8-10.4 29.2-27l-42.7-43.7c-5.3-5.0000003-14-5.0000003-18.9 0zm47.3 81.3c0 2.1 16.3 3.3 15.4-.5-1.3-6.4-13.6-5.9-15.4.5zM31.9 105.38831c3.7 3.2 9.3-.7 11.1-5.2-3.6-4.700003-16.9.3-11.1 5.2zm67.5-6.700003c-4.6 4.200003.8 8.600003 5.3 5.700003 1.2-.8-.1-4.700007-5.3-5.700003z"
           style="fill:#000;fill-opacity:1;filter:url(#q)"
           transform="translate(3.7e-7 .4883067)"
           id="path112" /><path
           d="m54.1 13.964921-41.2 42.2c-15.6 15.6 10.1 14.3 19.4 20.2 4.3 2.8-13.8 6.4-10.1 10.1 3.6 3.7 21.7 7.1 25.3 10.7 3.6 3.699999-7.3 7.600009-3.7 11.300009 3.5 3.7 11.9.2 13.4 8.6 1.1 6.2 15.4 3.1 21.8-2.2 4-3.4-6.9-3.4-3.3-7.1 9-9.100009 17-4.1 20.3-12.500009 1.8-4.5-13.6-7.7-9.5-10.6 9.8-6.9 45.8-10.4 29.2-27l-42.7-43.7c-5.3-5.0000009-14-5.0000009-18.9 0zm47.3 81.3c0 2.1 16.3 3.3 15.4-.5-1.3-6.4-13.6-5.9-15.4.5zM31.9 106.36493c3.7 3.2 9.3-.7 11.1-5.2-3.6-4.700009-16.9.3-11.1 5.2zm67.5-6.700009c-4.6 4.200009.8 8.600009 5.3 5.700009 1.2-.8-.1-4.70001-5.3-5.700009z"
           style="opacity:.57635468;fill:#000;fill-opacity:1;filter:url(#r)"
           transform="translate(3.7e-7 .4883067)"
           id="path114" /></g><path
         d="M54.1 12.5 12.9 54.7C-2.7 70.3 23 69 32.3 74.9c4.3 2.8-13.8 6.4-10.1 10.1 3.6 3.7 21.7 7.1 25.3 10.7 3.6 3.7-7.3 7.6-3.7 11.3 3.5 3.7 11.9.2 13.4 8.6 1.1 6.2 15.4 3.1 21.8-2.2 4-3.4-6.9-3.4-3.3-7.1 9-9.1 17-4.1 20.3-12.5 1.8-4.5-13.6-7.7-9.5-10.6 9.8-6.9 45.8-10.4 29.2-27L73 12.5c-5.3-5-14-5-18.9 0zm47.3 81.3c0 2.1 16.3 3.3 15.4-.5-1.3-6.4-13.6-5.9-15.4.5zm-69.5 11.1c3.7 3.2 9.3-.7 11.1-5.2-3.6-4.7-16.9.3-11.1 5.2zm67.5-6.7c-4.6 4.2.8 8.6 5.3 5.7 1.2-.8-.1-4.7-5.3-5.7z"
         style="fill:#000;fill-opacity:1"
         id="path118" /><path
         d="M54.1 12.5 12.9 54.7C-2.7 70.3 23 69 32.3 74.9c4.3 2.8-13.8 6.4-10.1 10.1 3.6 3.7 21.7 7.1 25.3 10.7 3.6 3.7-7.3 7.6-3.7 11.3 3.5 3.7 11.9.2 13.4 8.6 1.1 6.2 15.4 3.1 21.8-2.2 4-3.4-6.9-3.4-3.3-7.1 9-9.1 17-4.1 20.3-12.5 1.8-4.5-13.6-7.7-9.5-10.6 9.8-6.9 45.8-10.4 29.2-27L73 12.5c-5.3-5-14-5-18.9 0zm47.3 81.3c0 2.1 16.3 3.3 15.4-.5-1.3-6.4-13.6-5.9-15.4.5zm-69.5 11.1c3.7 3.2 9.3-.7 11.1-5.2-3.6-4.7-16.9.3-11.1 5.2zm67.5-6.7c-4.6 4.2.8 8.6 5.3 5.7 1.2-.8-.1-4.7-5.3-5.7z"
         style="fill:none"
         id="path120" /><use
         transform="matrix(.99054 0 0 .99054 .6051535 .604136)"
         clip-path="url(#s)"
         style="opacity:.66995072;fill:url(#t);filter:url(#filter8490-0)"
         width="400"
         height="300"
         xlink:href="#d"
         id="use122" /><path
         d="M16.565217 57.039374c-11.2019422 11.101024 8.477145 7.972553 23.614904 13.926739l31.284703-55.000526c-4.743164-4.844083-10.798268-4.44041-15.137759 0L16.565217 57.039374z"
         style="opacity:.50526315;fill:url(#u);stroke:none"
         id="path124" /><path
         d="m70.5 15.5 16.3 16.6c1.5 1.5 1.5 4.6.6 5.5L79.3 31l-1.6 9.7-6.7-3.6L60.1 44l-3.6-14.5-5.8 12.6-14.5-.1c-2.8 0-2.4-2.9.5-5.8 5.7-6.3 16.8-17 20.3-20.7 3.6-3.7 9.9-3.6 13.5 0z"
         style="fill:url(#v)"
         id="path126" /><path
         d="M113 203.5s3.34046 5.10071 3 7.5c-.66817 4.70868-10.80945 7.05842-8.5625 11.25 2.21991 4.14114 10.22139 1.79405 16.9375 6.125 6.6875 4.3125 4.88949 13.10149 9.75 15.3125 9.47925 4.31205 34.375-7.4375 33.125-7.1875s-24.57014 5.09545-29.82014.84545c-5.98592-4.84575-7.70217-8.23028-12.11736-11.09545-4.13751-2.68498-9.94967-3.78036-11.30246-5.97865-1.35279-2.19829 2.7092-5.03469 2.98996-9.27135.16862-2.54442-4-7.5-4-7.5z"
         transform="matrix(.52965 0 0 .52965 -11.722258 -13.864159)"
         style="opacity:.21674876;fill:url(#w);fill-opacity:1;fill-rule:evenodd;stroke:none"
         id="path128" /><path
         d="M113 203.5s3.34046 5.10071 3 7.5c-.66817 4.70868-10.80945 7.05842-8.5625 11.25 2.21991 4.14114 10.22139 1.79405 16.9375 6.125 6.6875 4.3125 4.88949 13.10149 9.75 15.3125 9.47925 4.31205 34.375-7.4375 33.125-7.1875-41.33959.15736-33.62485-10.4946-49.5625-17.5-2.30305-1.0123-.96826-3.76334-.6875-8 .16862-2.54442-4-7.5-4-7.5z"
         transform="matrix(.52965 0 0 .52965 -11.722258 -13.864159)"
         style="opacity:.27586209;fill:url(#x);fill-opacity:1;fill-rule:evenodd;stroke:none;filter:url(#filter8732-3)"
         id="path130" /><path
         d="M183.25 181.75c37.10371-13.65459 49.02363-15.53058 61.25-27.75-14.16069 11.95366-44.09847 18.3658-68.5 29l7.25-1.25z"
         transform="matrix(.52965 0 0 .52965 -11.722258 -13.864159)"
         style="opacity:.45320195;fill:url(#y);fill-opacity:1;fill-rule:evenodd;stroke:none"
         id="path132" /><path
         d="M183.25 181.75c61.10371-21.65459 50.77363-21.53058 61.25-27.75-19.42769 7.43666-55.73446 8.22981-68.5 29l7.25-1.25z"
         transform="matrix(.52965 0 0 .52965 -11.722258 -14.791044)"
         style="opacity:.51231528;fill:url(#z);fill-opacity:1;fill-rule:evenodd;stroke:none;filter:url(#filter8764-9)"
         id="path134" /><path
         d="M237.875 199.0625a7.9375 2.4375 0 1 1-15.875 0 7.9375 2.4375 0 1 1 15.875 0z"
         transform="matrix(.52965 0 0 .52965 -12.384318 -14.791044)"
         style="opacity:.2857143;fill:url(#A);fill-opacity:1;fill-rule:nonzero;stroke:none;stroke-width:1;marker:none;visibility:visible;display:inline;overflow:visible;enable-background:accumulate"
         id="path136" /><path
         d="M237.875 199.0625a7.9375 2.4375 0 1 1-15.875 0 7.9375 2.4375 0 1 1 15.875 0z"
         transform="matrix(.71315 0 0 1.14078 -54.577902 -134.95502)"
         style="opacity:.62068942;fill:url(#B);fill-opacity:1;fill-rule:nonzero;stroke:none;stroke-width:1;marker:none;visibility:visible;display:inline;overflow:visible;filter:url(#filter8906-3);enable-background:accumulate"
         id="path138" /><path
         d="M214.125 203.75c3.76948 3.48424 24.75576 5.27219 28.1875-1-6.73663 4.7839-21.71677 3.10264-28.1875 1z"
         transform="matrix(.52965 0 0 .52965 -11.722258 -14.238677)"
         style="fill:url(#C);fill-opacity:1;fill-rule:evenodd;stroke:none;filter:url(#filter8980-1)"
         id="path140" /><path
         d="M236.44594 199.0625a6.5084434 3.0820823 0 1 1-13.01688 0 6.5084434 3.0820823 0 1 1 13.01688 0z"
         transform="matrix(.20425 -.10356 .23952 .4724 5.7547955 30.286555)"
         style="opacity:.2857143;fill:url(#D);fill-opacity:1;fill-rule:nonzero;stroke:none;stroke-width:1;marker:none;visibility:visible;display:inline;overflow:visible;enable-background:accumulate"
         id="path142" /><path
         d="M236.99305 199.0625a7.0555515 2.1400476 0 1 1-14.1111 0 7.0555515 2.1400476 0 1 1 14.1111 0z"
         transform="matrix(.27502 -.13944 .51588 1.01747 -65.353496 -69.300635)"
         style="opacity:.62068942;fill:url(#E);fill-opacity:1;fill-rule:nonzero;stroke:none;stroke-width:1;marker:none;visibility:visible;display:inline;overflow:visible;filter:url(#filter8906-3);enable-background:accumulate"
         id="path144" /><path
         d="M217.05754 201.94027c3.76948 3.48424 26.97122 8.91123 25.25496.80973-3.31737 5.32326-18.78423 1.29291-25.25496-.80973z"
         transform="matrix(.20425 -.10356 .23952 .4724 6.2599008 30.649764)"
         style="fill:url(#F);fill-opacity:1;fill-rule:evenodd;stroke:none;filter:url(#filter8980-1)"
         id="path146" /><path
         d="M68.25 186c0-.62057 38.84622 11.83854 45.5 18.5-5.47122-5.33854-33.159709-17.61609-37.375-17.75-4.215291-.13391-7.625-.5-8.125-.75z"
         transform="matrix(.52965 0 0 .52965 -11.722258 -13.864159)"
         style="fill:url(#G);fill-opacity:1;fill-rule:evenodd;stroke:none"
         id="path148" /><path
         d="M237.875 199.0625a7.9375 2.4375 0 1 1-15.875 0 7.9375 2.4375 0 1 1 15.875 0z"
         transform="matrix(.46557 -.10222 .12385 .3686 -95.51838907 49.72743244)"
         style="opacity:.2857143;fill:url(#H);fill-opacity:1;fill-rule:nonzero;stroke:none;stroke-width:1;marker:none;visibility:visible;display:inline;overflow:visible;enable-background:accumulate"
         id="path150" /><path
         d="M237.875 199.0625a7.9375 2.4375 0 1 1-15.875 0 7.9375 2.4375 0 1 1 15.875 0z"
         transform="matrix(.62687 -.13763 .26675 .7939 -160.70560542 -25.755035)"
         style="opacity:.62068942;fill:url(#I);fill-opacity:1;fill-rule:nonzero;stroke:none;stroke-width:1;marker:none;visibility:visible;display:inline;overflow:visible;filter:url(#filter8906-3);enable-background:accumulate"
         id="path152" /><path
         d="M80.5 220.0625s2.10339 5.65078 7.875 5.9375c5.83887.29006 12.50324-7.00698 13.0625-9.625-1 2.25-6.590334 9.03328-13.8125 8.9375-4.099862-.0544-7.125-5.25-7.125-5.25z"
         transform="matrix(.52965 0 0 .52965 -11.622949 -14.42691)"
         style="opacity:.61576353;fill:url(#J);fill-opacity:1;fill-rule:evenodd;stroke:none;filter:url(#filter9068-2)"
         id="path154" /><path
         d="M63.40625 10.21875c-3.098181 0-6.134601 1.122042-8.28125 3.3125l-41.1875 42.1875c-3.76562 3.76562-4.6702413 6.23069-4.4375 7.625.1163706.697155.4585994 1.303027 1.1875 1.9375.728901.634473 1.831495 1.256389 3.15625 1.8125 2.649511 1.112222 6.217961 2.008085 9.71875 2.96875 3.500789.960665 6.929812 1.974626 9.53125 3.625.396623.258266.769088.576468 1.03125 1.03125s.354216 1.056088.25 1.5625c-.208431 1.012824-.83202 1.546985-1.46875 2.03125-1.27346.96853-3.023257 1.773229-4.78125 2.625-1.757993.851771-3.524925 1.723242-4.40625 2.4375-.440663.357129-.600112.678133-.59375.65625.0064-.02188-.116851-.273101.09375-.0625.551764.56709 2.274075 1.538165 4.46875 2.40625s4.88065 1.745624 7.59375 2.625c2.7131.879376 5.4575 1.749959 7.78125 2.65625 2.32375.906291 4.217694 1.748944 5.46875 3 .622681.639978 1.062632 1.435956 1.15625 2.25.09362.814044-.126809 1.578032-.4375 2.21875-.621382 1.28144-1.620313 2.26719-2.53125 3.21875-.910938.95156-1.736226 1.86034-2.03125 2.46875-.147512.3042-.170347.50242-.15625.625.0141.12258.03518.24623.3125.53125A1.4566768 1.4566768 0 0 1 44.875 106c1.193594 1.2618 3.787002 1.43924 6.71875 2.125 1.465874.34288 2.998909.86196 4.3125 2 1.313591 1.13804 2.299435 2.87059 2.71875 5.21875.176459.99459.702722 1.4788 1.96875 1.875 1.266028.3962 3.194353.46554 5.3125.15625 4.236295-.61859 9.260035-2.69532 12.15625-5.09375.17999-.15299.129956-.11255.1875-.1875-.194805-.13939-.651644-.43652-1.40625-.8125-.891527-.4442-1.944708-.85956-2.75-1.875-.402646-.50772-.679877-1.30934-.5625-2.09375.117377-.78441.546832-1.43702 1.125-2.03125 4.745751-4.79848 9.421937-5.944136 12.9375-6.875 1.757782-.465432 3.229292-.891233 4.34375-1.59375s1.98508-1.663728 2.71875-3.53125c.08087-.202174.07855-.260846-.03125-.5-.109803-.239154-.404459-.621729-.875-1.03125-.941082-.819041-2.510423-1.699196-4.0625-2.5625-1.552077-.863304-3.060466-1.668238-4.15625-2.6875-.547892-.509631-1.122017-1.151633-1.1875-2.125-.06548-.973367.572568-1.851633 1.3125-2.375 2.745718-1.93321 6.896278-3.404906 11.40625-4.96875 4.50997-1.563844 9.36113-3.182125 13.3125-5.03125 3.95137-1.849125 6.85729-3.978669 7.78125-6.125.46198-1.073165.54663-2.158606.0625-3.5625-.48413-1.403894-1.58958-3.120831-3.5625-5.09375L72 13.5625c-.01071-.0101-.02051-.02119-.03125-.03125-2.357722-2.207738-5.478371-3.3125-8.5625-3.3125zm45.9375 80c-2.63522.09513-5.05952 1.301393-6.09375 3.1875.29381.110524.55838.234969 1.03125.34375 1.37562.316455 3.29543.520736 5.1875.5625 1.89207.04176 3.78415-.117472 4.9375-.4375.50487-.14009.77236-.281778.90625-.375-.2558-1.091098-.86487-1.862126-1.90625-2.4375-1.07862-.595951-2.55669-.898111-4.0625-.84375zm-70.5 9.0625c-2.089872-.145348-4.716548.686551-6 1.71875-.641726.5161-.913269.99441-.9375 1.3125-.02423.31809.07726.74199.9375 1.46875a1.4566768 1.4566768 0 0 1 0 .0312c1.352809 1.17 2.882256 1.04802 4.625.0937 1.460951-.79997 2.757201-2.30075 3.625-3.875-.585032-.377341-1.284532-.682853-2.25-.75zm61 .625c-.447303.5686-.690902 1.09797-.71875 1.46875-.03844.51176.106611.90723.5 1.28125.73729.70099 2.33912 1.00278 3.96875.125-.0322-.1891-.0933-.47591-.34375-.84375-.4999-.73414-1.6686-1.5251-3.40625-2.03125z"
         style="fill:none;stroke:url(#K);stroke-width:.48830673;stroke-miterlimit:4;stroke-opacity:1;stroke-dasharray:none;filter:url(#filter9298-4)"
         id="path156" /><path
         d="M95.5 172c-5.090606 1.50191-21.592018 7.73713-19.25 12.5 2.243595 4.56272 40.61138 6.40132 46.5 20 2.5679 5.93009-5.89238 10.40326-3.75 16.5 1.64973 4.69477 14.41196 16.49084 22.48603 22.06781 6.33298 4.37435 14.65096-3.52244 11.26397-10.06781-5.39589-10.42759 18.44266-23.19912 29.25-29 6.30524-3.38436-13-20-13-20l-73.5-12z"
         transform="matrix(.4883 0 0 .4883 -5.8104012 -7.7042521)"
         style="opacity:.32512315;fill:url(#L);fill-opacity:1;fill-rule:evenodd;stroke:none;filter:url(#filter5983-8)"
         id="path158" /><path
         d="M41.742167 78.533037c2.231933 1.639226 6.636757.650538 9.282124 1.841759 6.349518 2.859218 14.154941 6.045427 12.718568.404555l-1.615771 1.342042-.03153-2.557545-3.751977.916294s-2.906173-2.332759-4.238526-3.101995c-.27829-.160669-1.707695 1.292815-1.707695 1.292815l-.25697-1.543804c-1.857372-.197638-3.696159-.284805-5.31515-.271821-3.880942.03112-6.499059.637741-5.083074 1.6777z"
         style="fill:url(#M);fill-opacity:1;fill-rule:evenodd;stroke:none"
         id="path160" /><path
         d="M182.75 187.25c-1.75981 6.4783 21.62776 15.27989 19.875 19.75-3.85895 9.84158-24.97596 3.13755-41.125 23.75-2.31318 2.95251 3.25 13.5 2.5 12.25s-6.4649-9.96285-5-14.25c4.59417-13.44525 49.0128-18.45749 40.875-24.875-4.67988-3.69058-21.50546-13.88721-17.125-16.625z"
         transform="matrix(.4883 0 0 .4883 -5.8104012 -7.7042521)"
         style="opacity:.47783251;fill:url(#N);fill-opacity:1;fill-rule:evenodd;stroke:none;filter:url(#filter5845-5)"
         id="path162" /><path
         d="M236.5 201.1875a2.5625 1.0625 0 1 1-5.125 0 2.5625 1.0625 0 1 1 5.125 0z"
         transform="matrix(.4883 0 0 .4883 -6.3597463 -8.0094438)"
         style="opacity:.58620689;fill:#fff;fill-opacity:1;fill-rule:nonzero;stroke:none;stroke-width:1;marker:none;visibility:visible;display:inline;overflow:visible;enable-background:accumulate"
         id="path164" /><path
         d="M236.5 201.1875a2.5625 1.0625 0 1 1-5.125 0 2.5625 1.0625 0 1 1 5.125 0z"
         transform="matrix(.30966 0 0 .4883 27.528443 1.5735759)"
         style="opacity:.58620689;fill:#fff;fill-opacity:1;fill-rule:nonzero;stroke:none;stroke-width:1;marker:none;visibility:visible;display:inline;overflow:visible;enable-background:accumulate"
         id="path166" /><path
         d="M236.5 201.1875a2.5625 1.0625 0 1 1-5.125 0 2.5625 1.0625 0 1 1 5.125 0z"
         transform="matrix(.54786 0 0 .4883 -92.102233 1.115795)"
         style="opacity:.58620689;fill:#fff;fill-opacity:1;fill-rule:nonzero;stroke:none;stroke-width:1;marker:none;visibility:visible;display:inline;overflow:visible;enable-background:accumulate"
         id="path168" /><path
         d="M36.672282 76.528654c-7.152988 4.424107-18.274031 6.034229-6.103834 8.972635-1.449712-3.2281 3.138581-2.872021 6.103834-8.972635z"
         style="opacity:.25123153;fill:url(#O);fill-opacity:1;fill-rule:nonzero;stroke:none;stroke-width:2.04789329;marker:none;visibility:visible;display:inline;overflow:visible;enable-background:accumulate"
         id="path170" /><path
         d="M8.8342799 171.64721S31.42606 169.51926 36.6523 163.00076c3.05755-3.81358-12.15146-8.2638-8.86827-12 12.35008-14.0541 22.73076-13.46729 37.05025-19.35355 14.31949-5.88626 9.03544-8.76906 4.40381-11.35355-7.9325-4.4264-25.58722-9.14237-19.74696-19.64645 5.87688-10.569936 57.34315-25.249996 57.34315-25.249996 15.59619-5.32843 13.63909-14.96447 6-23l-46-45.7499997s2.28296 43.3886497-7 61.9999997c-11.4715 22.99914-72.54408 48.661766-47 51.499996 9 1 13.32065 4.0705 17 11 7.57631 14.26883-21.0000001 40.5-21.0000001 40.5z"
         transform="matrix(.4883 0 0 .4883 57.750397 32.997477)"
         style="opacity:.36315792;color:#000;fill:url(#P);fill-opacity:1;fill-rule:nonzero;stroke:none;stroke-width:2;marker:none;visibility:visible;display:inline;overflow:visible;filter:url(#filter10997-7-2);enable-background:accumulate"
         id="path172" /></g></g><path
     d="M 53.912256,10.729905 12.961932,52.674173 c -15.5054706,15.505464 10.03879,14.213342 19.282432,20.077588 4.273942,2.783032 -13.716372,6.361216 -10.038792,10.038794 3.57818,3.677582 21.568496,7.056972 25.14668,10.635162 3.578184,3.67758 -7.255762,7.553953 -3.677578,11.231523 3.47879,3.67758 11.827886,0.19879 13.318796,8.54789 1.093334,6.16243 15.306676,3.08121 21.667892,-2.18667 3.97576,-3.3794 -6.858186,-3.3794 -3.280002,-7.05697 8.94546,-9.044863 16.89698,-4.075158 20.176982,-12.424263 1.789092,-4.47273 -13.517584,-7.653338 -9.44243,-10.535764 9.740612,-6.858186 45.522448,-10.336976 29.023048,-26.83638 L 72.697722,10.729905 c -5.267882,-4.9697 -13.91516,-4.9697 -18.785466,0 z m 47.013364,80.807322 c 0,2.08728 16.20122,3.28 15.30667,-0.49697 -1.29212,-6.361216 -13.51758,-5.86425 -15.30667,0.49697 z M 31.846788,102.56997 c 3.677578,3.18061 9.243642,-0.69576 11.032734,-5.168493 -3.578184,-4.67152 -16.79759,0.29818 -11.032734,5.168493 z m 67.09095,-6.659403 c -4.572124,4.174553 0.795152,8.547893 5.267882,5.665463 1.19273,-0.79515 -0.0994,-4.671523 -5.267882,-5.665463 z"
     style="fill:#353535;fill-opacity:1;stroke-width:0.99394"
     id="path2660" /><path
     d="M 54.161525,10.979174 13.211197,52.923442 c -15.5054639,15.505464 10.038794,14.213342 19.282436,20.077588 4.273942,2.783032 -13.716372,6.361216 -10.038794,10.038794 3.578184,3.677578 21.568498,7.056974 25.146682,10.635158 3.578184,3.677578 -7.255762,7.553948 -3.677578,11.231518 3.47879,3.67758 11.827886,0.19879 13.318796,8.54789 1.093334,6.16243 15.306676,3.08121 21.667892,-2.18667 3.97576,-3.3794 -6.858186,-3.3794 -3.280002,-7.05697 8.94546,-9.044858 16.89698,-4.07516 20.176982,-12.424254 1.789092,-4.47273 -13.517584,-7.653338 -9.44243,-10.535764 9.740612,-6.858186 45.522449,-10.336976 29.023049,-26.83638 L 72.946991,10.979174 c -5.267882,-4.9696998 -13.91516,-4.9696998 -18.785466,0 z m 47.013365,80.807322 c 0,2.087274 16.20122,3.280002 15.30667,-0.49697 -1.29212,-6.361216 -13.51758,-5.864246 -15.30667,0.49697 z M 32.096057,102.81923 c 3.677578,3.18061 9.243642,-0.69576 11.032734,-5.168488 -3.578184,-4.671518 -16.797586,0.298182 -11.032734,5.168488 z m 67.09095,-6.659398 c -4.572124,4.174548 0.795152,8.547888 5.267883,5.665458 1.19273,-0.79515 -0.0994,-4.671518 -5.267883,-5.665458 z"
     style="fill:none;stroke-width:0.99394"
     id="path2662" /><path
     d="M 16.854203,55.24864 C 5.7201445,66.282391 25.279976,63.172879 40.326001,69.090983 L 71.421118,14.42376 c -4.71442,-4.8147281 -10.73283,-4.413501 -15.046024,0 z"
     style="opacity:1;fill:#ffae00;fill-opacity:1;stroke:none;stroke-width:0.99394"
     id="path2666" /><path
     d="m 70.462141,13.960994 16.201222,16.499404 c 1.49091,1.49091 1.49091,4.572124 0.596364,5.46667 l -8.050914,-6.560004 -1.590304,9.641218 -6.659398,-3.578184 -10.833946,6.858186 -3.578184,-14.41213 -5.764852,12.523644 -14.41213,-0.09939 c -2.783032,0 -2.385456,-2.882426 0.49697,-5.764852 5.665458,-6.261822 16.698192,-16.89698 20.176982,-20.574558 3.578184,-3.677578 9.840006,-3.578184 13.41819,0 z"
     style="fill:#ffae00;fill-opacity:1;stroke-width:0.99394"
     id="path2668" /><path
     d="m 48.225906,91.905387 c 0,0 1.758553,2.68522 1.579321,3.948303 -0.351752,2.478839 -5.69053,3.715836 -4.507645,5.92245 1.16865,2.18007 5.380952,0.94446 8.916583,3.22445 3.520569,2.27027 2.574024,6.89715 5.132793,8.06112 4.990259,2.27003 18.096386,-3.9154 17.438336,-3.78379 -0.658051,0.13161 -12.934713,2.68245 -15.698525,0.44508 -3.151229,-2.551 -4.054732,-4.33275 -6.379066,-5.8411 -2.178152,-1.41348 -5.237908,-1.99013 -5.950071,-3.1474 -0.712163,-1.157267 1.426232,-2.650462 1.574035,-4.88081 0.08877,-1.339486 -2.105761,-3.948303 -2.105761,-3.948303 z"
     style="opacity:0.216749;fill:url(#radialGradient1049);fill-opacity:1;fill-rule:evenodd;stroke:none;stroke-width:0.52644"
     id="path2670" /><path
     d="m 48.225906,91.905387 c 0,0 1.758553,2.68522 1.579321,3.948303 -0.351752,2.478839 -5.69053,3.715836 -4.507645,5.92245 1.16865,2.18007 5.380952,0.94446 8.916583,3.22445 3.520569,2.27027 2.574024,6.89715 5.132793,8.06112 4.990259,2.27003 18.096386,-3.9154 17.438336,-3.78379 -21.762827,0.0828 -17.701477,-5.52478 -26.091699,-9.21271 -1.212418,-0.532913 -0.509731,-1.981172 -0.361928,-4.21152 0.08877,-1.339486 -2.105761,-3.948303 -2.105761,-3.948303 z"
     style="opacity:0.275862;fill:url(#radialGradient1051);fill-opacity:1;fill-rule:evenodd;stroke:none;stroke-width:0.52644;filter:url(#filter8732-3)"
     id="path2672" /><path
     d="M 85.208339,80.45531 C 104.74123,73.266983 111.01635,72.279387 117.45281,65.846591 109.99805,72.13948 94.237596,75.515089 81.391646,81.113361 Z"
     style="opacity:0.453202;fill:url(#radialGradient1053);fill-opacity:1;fill-rule:evenodd;stroke:none;stroke-width:0.52644"
     id="path2674" /><path
     d="M 85.208339,79.534042 C 117.3758,68.134193 111.93762,68.199477 117.45281,64.925323 107.22529,68.840281 88.111941,69.257827 81.391646,80.192093 Z"
     style="opacity:0.512315;fill:url(#radialGradient1055);fill-opacity:1;fill-rule:evenodd;stroke:none;stroke-width:0.52644;filter:url(#filter8764-9)"
     id="path2676" /><path
     d="m 113.30709,88.64804 a 4.17862,1.2831983 0 1 1 -8.35724,0 4.17862,1.2831983 0 1 1 8.35724,0 z"
     style="display:inline;overflow:visible;visibility:visible;opacity:0.285714;fill:url(#linearGradient1057);fill-opacity:1;fill-rule:nonzero;stroke:none;stroke-width:0.52644;marker:none;enable-background:accumulate"
     id="path2678" /><path
     d="m 114.75475,90.12811 a 5.626325,2.7638007 0 1 1 -11.25265,0 5.626325,2.7638007 0 1 1 11.25265,0 z"
     style="display:inline;overflow:visible;visibility:visible;opacity:0.620689;fill:url(#linearGradient1059);fill-opacity:1;fill-rule:nonzero;stroke:none;stroke-width:0.896503;marker:none;filter:url(#filter8906-3);enable-background:accumulate"
     id="path2680" /><path
     d="m 101.46218,91.664749 c 1.98441,1.834245 13.03243,2.775494 14.83904,-0.52644 -3.54643,2.518438 -11.43258,1.633355 -14.83904,0.52644 z"
     style="fill:url(#radialGradient1061);fill-opacity:1;fill-rule:evenodd;stroke:none;stroke-width:0.52644;filter:url(#filter8980-1)"
     id="path2682" /><path
     d="m 101.50123,97.787249 a 1.62254,1.4814266 63.113209 1 1 -2.642589,1.339859 1.62254,1.4814266 63.113209 1 1 2.642589,-1.339859 z"
     style="display:inline;overflow:visible;visibility:visible;opacity:0.285714;fill:url(#linearGradient1063);fill-opacity:1;fill-rule:nonzero;stroke:none;stroke-width:0.34616;marker:none;enable-background:accumulate"
     id="path2684" /><path
     d="m 102.28482,98.140924 a 2.4265286,2.1623939 63.11315 1 1 -3.857321,1.955726 2.4265286,2.1623939 63.11315 1 1 3.857321,-1.955726 z"
     style="display:inline;overflow:visible;visibility:visible;opacity:0.620689;fill:url(#linearGradient1065);fill-opacity:1;fill-rule:nonzero;stroke:none;stroke-width:0.589499;marker:none;filter:url(#filter8906-3);enable-background:accumulate"
     id="path2686" /><path
     d="m 98.752296,101.49517 c 1.594734,1.24798 7.596974,1.40794 5.319834,-2.219354 0.59384,2.840934 -3.50562,2.540574 -5.319834,2.219354 z"
     style="fill:url(#radialGradient1067);fill-opacity:1;fill-rule:evenodd;stroke:none;stroke-width:0.34616;filter:url(#filter8980-1)"
     id="path2688" /><path
     d="m 24.667702,82.692682 c 0,-0.326694 20.450216,6.232284 23.953034,9.739145 -2.88027,-2.810422 -17.456607,-9.27382 -19.675707,-9.344315 -2.219099,-0.0705 -4.014107,-0.26322 -4.277327,-0.39483 z"
     style="fill:url(#radialGradient1069);fill-opacity:1;fill-rule:evenodd;stroke:none;stroke-width:0.52644"
     id="path2690" /><path
     d="m 40.030647,96.742565 a 0.93622463,3.7620194 78.027236 1 1 -7.346134,1.612909 0.93622463,3.7620194 78.027236 1 1 7.346134,-1.612909 z"
     style="display:inline;overflow:visible;visibility:visible;opacity:0.285714;fill:url(#linearGradient1071);fill-opacity:1;fill-rule:nonzero;stroke:none;stroke-width:0.426664;marker:none;enable-background:accumulate"
     id="path2692" /><path
     d="m 41.648832,97.493649 a 2.0150126,5.0690331 78.786159 1 1 -9.891255,2.171636 2.0150126,5.0690331 78.786159 1 1 9.891255,-2.171636 z"
     style="display:inline;overflow:visible;visibility:visible;opacity:0.620689;fill:url(#linearGradient1073);fill-opacity:1;fill-rule:nonzero;stroke:none;stroke-width:0.726586;marker:none;filter:url(#filter8906-3);enable-background:accumulate"
     id="path2694" /><path
     d="m 31.215303,100.06521 c 0,0 1.107309,2.9748 4.145717,3.12574 3.073817,0.1527 6.58221,-3.688753 6.876627,-5.066985 -0.52644,1.184491 -3.469418,4.755485 -7.271457,4.705065 -2.158333,-0.0286 -3.750887,-2.76382 -3.750887,-2.76382 z"
     style="opacity:0.615764;fill:url(#radialGradient1075);fill-opacity:1;fill-rule:evenodd;stroke:none;stroke-width:0.52644;filter:url(#filter9068-2)"
     id="path2696" /><path
     d="m 63.411379,8.7117486 c -3.079406,0 -6.097425,1.1152424 -8.231065,3.2924264 L 14.24241,53.936019 c -3.7428,3.7428 -4.6419398,6.192932 -4.4106089,7.578792 0.1156654,0.69293 0.4558199,1.295131 1.1803039,1.925759 0.724484,0.630628 1.820396,1.248775 3.137123,1.801516 2.633455,1.105482 6.18028,1.995916 9.659854,2.950759 3.479575,0.954844 6.887818,1.96266 9.473491,3.603033 0.394219,0.256701 0.764427,0.572975 1.025001,1.025001 0.260573,0.452026 0.352069,1.049688 0.248485,1.553031 -0.207168,1.006686 -0.826978,1.53761 -1.45985,2.01894 -1.265743,0.962661 -3.004936,1.762484 -4.752275,2.609093 -1.74734,0.846609 -3.503564,1.712799 -4.379549,2.422729 -0.437992,0.354964 -0.596475,0.674023 -0.590151,0.652273 0.0064,-0.02175 -0.116143,-0.271446 0.09318,-0.06212 0.548421,0.563653 2.260295,1.528843 4.44167,2.391668 2.181375,0.862824 4.851073,1.735045 7.547732,2.609092 2.696658,0.874047 5.424427,1.739354 7.734095,2.640153 2.309668,0.900799 4.192135,1.738346 5.43561,2.98182 0.618907,0.6361 1.056192,1.427254 1.149243,2.236365 0.09305,0.809111 -0.126041,1.568469 -0.434849,2.205305 -0.617616,1.273674 -1.610494,2.253451 -2.515911,3.199242 -0.905417,0.94579 -1.725704,1.84907 -2.01894,2.45379 -0.146618,0.30236 -0.169315,0.49938 -0.155303,0.62121 0.01401,0.12184 0.03497,0.24474 0.310606,0.52803 a 1.4478493,1.4478493 0 0 1 0.03106,0.0311 c 1.18636,1.25416 3.764052,1.43052 6.678034,2.11213 1.456991,0.3408 2.980736,0.85673 4.286366,1.98788 1.305631,1.13114 2.285501,2.85319 2.702275,5.18712 0.175389,0.98856 0.698463,1.46984 1.956819,1.86364 1.258356,0.3938 3.174995,0.46272 5.280306,0.1553 4.210623,-0.61484 9.203919,-2.67898 12.082583,-5.06288 0.1789,-0.15206 0.129169,-0.11187 0.186364,-0.18636 -0.193624,-0.13855 -0.647695,-0.43388 -1.397728,-0.80758 -0.886124,-0.44151 -1.932923,-0.85435 -2.733335,-1.86364 -0.400206,-0.50464 -0.675757,-1.3014 -0.559091,-2.08106 0.116665,-0.77966 0.543518,-1.42831 1.118182,-2.01894 4.716992,-4.7694 9.36484,-5.908114 12.859099,-6.833337 1.74713,-0.462611 3.209722,-0.885832 4.317427,-1.584092 1.107704,-0.698259 1.97305,-1.653645 2.702274,-3.50985 0.08038,-0.200949 0.07807,-0.259265 -0.03106,-0.49697 C 94.331804,90.536256 94.038934,90.156 93.571244,89.74896 92.635865,88.934883 91.076034,88.060061 89.533363,87.201989 87.990691,86.343917 86.491443,85.54386 85.4023,84.530775 c -0.544572,-0.506542 -1.115218,-1.144654 -1.180304,-2.112122 -0.06508,-0.967469 0.569098,-1.840412 1.304546,-2.360608 2.729079,-1.921495 6.854487,-3.384272 11.337128,-4.938639 4.48264,-1.554367 9.3044,-3.162841 13.23183,-5.000761 3.92742,-1.837919 6.81573,-3.954558 7.73409,-6.087882 0.45918,-1.066662 0.54332,-2.145525 0.0621,-3.540912 -0.4812,-1.395386 -1.57995,-3.101918 -3.54092,-5.062881 L 71.953051,12.035235 c -0.01064,-0.01004 -0.02039,-0.02106 -0.03106,-0.03106 C 69.578556,9.8098157 66.476818,8.7117486 63.411379,8.7117486 Z M 109.0705,88.226949 c -2.61925,0.09455 -5.02886,1.293506 -6.05682,3.168183 0.29203,0.109855 0.55499,0.233545 1.025,0.341667 1.36728,0.314537 3.27546,0.517581 5.15606,0.559091 1.8806,0.04151 3.76122,-0.11676 4.90758,-0.434848 0.50181,-0.139241 0.76768,-0.280071 0.90076,-0.372728 -0.25425,-1.084486 -0.85963,-1.850841 -1.8947,-2.422729 -1.07208,-0.592339 -2.5412,-0.892668 -4.03788,-0.838636 z M 38.997728,97.23453 c -2.077207,-0.144467 -4.687966,0.68239 -5.96364,1.708334 -0.637837,0.512973 -0.907735,0.988384 -0.931819,1.304546 -0.02408,0.31616 0.07679,0.73749 0.931819,1.45985 a 1.4478493,1.4478493 0 0 1 0,0.031 c 1.344611,1.16291 2.86479,1.04167 4.596972,0.0931 1.452098,-0.79512 2.740493,-2.286805 3.603033,-3.851515 -0.581487,-0.375054 -1.276748,-0.678714 -2.236365,-0.745455 z m 60.63034,0.621212 c -0.444592,0.565155 -0.686715,1.091317 -0.714394,1.45985 -0.03821,0.508658 0.105965,0.901728 0.49697,1.273488 0.732826,0.69674 2.324946,0.9967 3.944696,0.12424 -0.032,-0.18795 -0.0927,-0.47303 -0.34166,-0.838637 -0.49687,-0.729691 -1.65849,-1.515858 -3.385612,-2.018941 z"
     style="fill:none;stroke:url(#radialGradient1077);stroke-width:0.485348;stroke-miterlimit:4;stroke-dasharray:none;stroke-opacity:1;filter:url(#filter9298-4)"
     id="path2698" /><path
     d="m 40.964237,74.375995 c -2.470679,0.728938 -10.47949,3.755145 -9.342812,6.066761 1.088908,2.214475 19.710363,3.106822 22.568351,9.706818 1.246307,2.878115 -2.859813,5.049128 -1.820028,8.008125 0.800681,2.278561 6.994714,8.003681 10.91339,10.710411 3.073654,2.12305 7.11071,-1.70958 5.466865,-4.88632 -2.618846,-5.060936 8.950978,-11.259482 14.196222,-14.074887 3.060191,-1.642568 -6.309432,-9.706818 -6.309432,-9.706818 z"
     style="opacity:0.81707317;fill:#ffae00;fill-opacity:1;fill-rule:evenodd;stroke:none;stroke-width:0.485341;filter:url(#filter5983-8)"
     id="path2700" /><path
     d="m 41.878581,76.612051 c 2.218407,1.629292 6.596538,0.646596 9.225874,1.830598 6.31104,2.841891 14.069162,6.008792 12.641493,0.402103 l -1.605979,1.33391 -0.03134,-2.542047 -3.72924,0.910742 c 0,0 -2.888562,-2.318623 -4.212841,-3.083197 -0.276603,-0.159696 -1.697346,1.28498 -1.697346,1.28498 L 52.21379,75.214692 c -1.846116,-0.196441 -3.67376,-0.283079 -5.28294,-0.270174 -3.857423,0.03093 -6.459675,0.633876 -5.052269,1.667533 z"
     style="fill:url(#linearGradient1079);fill-opacity:1;fill-rule:evenodd;stroke:none;stroke-width:0.99394"
     id="path2702" /><path
     d="m 83.31023,81.777443 c -0.854107,3.144184 10.496837,7.415956 9.646151,9.585483 -1.872907,4.776521 -12.121855,1.522782 -19.959645,11.526844 -1.122681,1.43298 1.577358,6.5521 1.213352,5.94543 -0.364005,-0.60668 -3.13768,-4.83538 -2.426704,-6.91611 C 74.013123,95.393561 95.5713,92.960916 91.621693,89.846236 89.350356,88.055046 81.184214,83.106205 83.31023,81.777443 Z"
     style="opacity:0.477833;fill:url(#radialGradient1081);fill-opacity:1;fill-rule:evenodd;stroke:none;stroke-width:0.485341;filter:url(#filter5845-5)"
     id="path2704" /><path
     d="m 108.85129,88.23854 a 1.2436861,0.51567471 0 1 1 -2.48737,0 1.2436861,0.51567471 0 1 1 2.48737,0 z"
     style="display:inline;overflow:visible;visibility:visible;opacity:0.586207;fill:#ffae00;fill-opacity:1;fill-rule:nonzero;stroke:none;stroke-width:0.485341;marker:none;enable-background:accumulate"
     id="path2706" /><path
     d="m 100.54178,97.763487 a 0.78869512,0.51567471 0 1 1 -1.57739,0 0.78869512,0.51567471 0 1 1 1.57739,0 z"
     style="display:inline;overflow:visible;visibility:visible;opacity:0.586207;fill:#ffae00;fill-opacity:1;fill-rule:nonzero;stroke:none;stroke-width:0.386497;marker:none;enable-background:accumulate"
     id="path2708" /><path
     d="m 37.628981,97.30848 a 1.3953837,0.51567471 0 1 1 -2.790767,0 1.3953837,0.51567471 0 1 1 2.790767,0 z"
     style="display:inline;overflow:visible;visibility:visible;opacity:0.586207;fill:#ffae00;fill-opacity:1;fill-rule:nonzero;stroke:none;stroke-width:0.514089;marker:none;enable-background:accumulate"
     id="path2710" /><path
     d="m 36.839419,74.619815 c -7.109641,4.397296 -18.16329,5.997661 -6.066845,8.91826 -1.440926,-3.208537 3.119562,-2.854616 6.066845,-8.91826 z"
     style="display:inline;overflow:visible;visibility:visible;opacity:0.251232;fill:url(#linearGradient1083);fill-opacity:1;fill-rule:nonzero;stroke:none;stroke-width:2.03548;marker:none;enable-background:accumulate"
     id="path2712" /><path
     d="m 62.077438,114.65985 c 0,0 10.964715,-1.03278 13.501223,-4.19648 1.483954,-1.85088 -5.8976,-4.01076 -4.304134,-5.82409 5.993999,-6.821029 11.032168,-6.536226 17.982002,-9.393069 6.949834,-2.856842 4.385268,-4.255983 2.137349,-5.510342 -3.849967,-2.148313 -12.418524,-4.437166 -9.584007,-9.535226 2.85229,-5.130022 27.830979,-12.254855 27.830979,-12.254855 7.56947,-2.586105 6.6196,-7.26287 2.91204,-11.162841 L 90.227211,34.578601 c 0,0 1.108013,21.058286 -3.397387,30.091136 -5.567588,11.162423 -35.208609,23.617545 -22.811022,24.995054 4.368068,0.485341 6.465056,1.97558 8.250795,5.33875 3.677093,6.925249 -10.192159,19.656309 -10.192159,19.656309 z"
     style="color:#000000;display:inline;overflow:visible;visibility:visible;opacity:1;fill:#ffae00;fill-opacity:1;fill-rule:nonzero;stroke:none;stroke-width:0.970682;marker:none;filter:url(#filter10997-7-2);enable-background:accumulate"
     id="path2714" /></svg>
